<?xml version="1.0" encoding="UTF-8"?>
<svg xmlns="http://www.w3.org/2000/svg" xmlns:xlink="http://www.w3.org/1999/xlink" width="375pt" height="374.999991pt" viewBox="0 0 375 374.999991" version="1.2">
<g id="surface1">
<path style=" stroke:none;fill-rule:nonzero;fill:rgb(4.708862%,12.159729%,19.60907%);fill-opacity:1;" d="M 159.265625 269.050781 L 133.195312 151.914062 L 223.242188 131.875 L 249.308594 249.011719 Z M 159.265625 269.050781 "/>
<path style=" stroke:none;fill-rule:nonzero;fill:rgb(7.839966%,19.219971%,30.198669%);fill-opacity:1;" d="M 183.773438 272.160156 L 156.328125 155.34375 L 197.214844 145.738281 L 224.660156 262.554688 Z M 183.773438 272.160156 "/>
<path style=" stroke:none;fill-rule:nonzero;fill:rgb(10.978699%,27.449036%,43.919373%);fill-opacity:1;" d="M 196.070312 289.21875 L 151.550781 92.074219 L 151.367188 91.261719 L 62.847656 111.25 L 63.03125 112.0625 L 107.640625 309.132812 C 111.183594 324.824219 133.882812 333.035156 158.335938 327.515625 C 182.644531 322.078125 199.613281 304.90625 196.070312 289.21875 Z M 113.726562 130.441406 L 113.929688 130.398438 Z M 113.726562 130.441406 "/>
<path style=" stroke:none;fill-rule:nonzero;fill:rgb(11.369324%,77.648926%,56.469727%);fill-opacity:1;" d="M 130.851562 124.121094 L 132.691406 123.066406 C 133.304688 122.714844 133.867188 122.371094 134.421875 121.980469 L 134.472656 121.96875 C 135.035156 121.628906 135.585938 121.238281 136.136719 120.847656 L 136.1875 120.835938 C 136.738281 120.445312 137.238281 120.0625 137.789062 119.671875 L 137.839844 119.660156 C 138.34375 119.28125 138.894531 118.890625 139.382812 118.460938 L 139.433594 118.449219 C 139.933594 118.070312 140.421875 117.636719 140.863281 117.21875 L 140.914062 117.207031 C 141.402344 116.777344 141.839844 116.355469 142.277344 115.9375 C 142.71875 115.519531 143.15625 115.101562 143.582031 114.628906 C 150.007812 107.898438 153.1875 100.027344 151.632812 92.429688 L 151.550781 92.074219 C 148.007812 76.386719 125.308594 68.171875 100.855469 73.691406 C 76.40625 79.214844 59.4375 96.386719 62.980469 112.074219 L 63.0625 112.429688 C 66.875 127.894531 89.375 135.941406 113.625 130.464844 C 119.976562 129.085938 125.769531 126.871094 130.851562 124.121094 Z M 130.851562 124.121094 "/>
<path style=" stroke:none;fill-rule:nonzero;fill:rgb(10.978699%,27.449036%,43.919373%);fill-opacity:1;" d="M 312.039062 263.03125 L 267.523438 65.886719 L 267.339844 65.074219 L 178.820312 85.0625 L 179.003906 85.875 L 223.609375 282.945312 C 227.152344 298.636719 249.855469 306.847656 274.304688 301.328125 C 298.613281 295.890625 315.582031 278.71875 312.039062 263.03125 Z M 229.695312 104.253906 L 229.898438 104.210938 Z M 229.695312 104.253906 "/>
<path style=" stroke:none;fill-rule:nonzero;fill:rgb(11.369324%,77.648926%,56.469727%);fill-opacity:1;" d="M 246.824219 97.933594 L 248.664062 96.878906 C 249.277344 96.527344 249.839844 96.183594 250.390625 95.792969 L 250.441406 95.78125 C 251.003906 95.441406 251.554688 95.050781 252.109375 94.660156 L 252.160156 94.648438 C 252.710938 94.257812 253.210938 93.875 253.761719 93.484375 L 253.8125 93.472656 C 254.3125 93.09375 254.863281 92.703125 255.355469 92.273438 L 255.40625 92.261719 C 255.90625 91.878906 256.394531 91.449219 256.832031 91.03125 L 256.882812 91.019531 C 257.371094 90.589844 257.8125 90.167969 258.25 89.75 C 258.6875 89.332031 259.125 88.910156 259.554688 88.441406 C 265.976562 81.707031 269.160156 73.839844 267.601562 66.242188 L 267.523438 65.886719 C 263.980469 50.195312 241.277344 41.984375 216.828125 47.503906 C 192.378906 53.027344 175.410156 70.199219 178.953125 85.886719 L 179.03125 86.242188 C 182.84375 101.707031 205.347656 109.753906 229.59375 104.277344 C 235.949219 102.898438 241.738281 100.683594 246.824219 97.933594 Z M 246.824219 97.933594 "/>
</g>
</svg>
